<svg width="428" height="19" viewBox="0 0 428 19" fill="none" xmlns="http://www.w3.org/2000/svg">
<path d="M15.0678 13.226V14H0.0917969V13.226H4.1058C3.1698 12.638 2.4258 11.858 1.8738 10.886C1.3338 9.914 1.0638 8.858 1.0638 7.718C1.0638 5.93 1.6998 4.394 2.9718 3.11C4.2438 1.826 5.7798 1.184 7.5798 1.184C9.3798 1.184 10.9158 1.82 12.1878 3.092C13.4598 4.364 14.0958 5.894 14.0958 7.682C14.0958 8.822 13.8138 9.884 13.2498 10.868C12.6978 11.852 11.9538 12.638 11.0178 13.226H15.0678ZM7.5798 12.74C8.9838 12.74 10.1718 12.248 11.1438 11.264C12.1158 10.28 12.6018 9.098 12.6018 7.718C12.6018 6.326 12.1158 5.144 11.1438 4.172C10.1838 3.188 9.0018 2.696 7.5978 2.696C6.2058 2.696 5.0238 3.188 4.0518 4.172C3.0798 5.156 2.5938 6.344 2.5938 7.736C2.5938 9.116 3.0738 10.298 4.0338 11.282C5.0058 12.254 6.1878 12.74 7.5798 12.74ZM10.5858 9.968C9.7698 10.82 8.8398 11.246 7.7958 11.246C6.7518 11.246 5.8818 10.922 5.1858 10.274C4.4898 9.614 4.1418 8.75 4.1418 7.682C4.1418 6.614 4.5018 5.75 5.2218 5.09C5.9418 4.43 6.8358 4.1 7.9038 4.1C8.9718 4.1 9.8478 4.46 10.5318 5.18L9.6678 6.242C9.0438 5.714 8.4318 5.45 7.8318 5.45C7.2318 5.45 6.7038 5.654 6.2478 6.062C5.8038 6.458 5.5818 6.98 5.5818 7.628C5.5818 8.264 5.8038 8.804 6.2478 9.248C6.7038 9.692 7.2558 9.914 7.9038 9.914C8.5638 9.914 9.1698 9.62 9.7218 9.032L10.5858 9.968ZM20.0004 13.226V14H15.0684V13.226H20.0004ZM21.0518 13.226V12.2L24.8678 8.366C25.7198 7.502 26.3258 6.824 26.6858 6.332C27.0458 5.84 27.2258 5.342 27.2258 4.838C27.2258 4.334 27.0338 3.908 26.6498 3.56C26.2658 3.2 25.7798 3.02 25.1918 3.02C24.1598 3.02 23.3018 3.548 22.6178 4.604L20.9078 3.614C21.4598 2.786 22.0658 2.162 22.7258 1.742C23.3978 1.322 24.2558 1.112 25.2998 1.112C26.3558 1.112 27.2798 1.448 28.0718 2.12C28.8638 2.78 29.2598 3.686 29.2598 4.838C29.2598 5.486 29.0918 6.104 28.7558 6.692C28.4198 7.28 27.8018 8.036 26.9018 8.96L23.9498 11.966H29.6558V13.226H31.4018V14H19.3058V13.226H21.0518ZM42.9914 13.226V14H30.6074V13.226H33.7934C32.3774 12.158 31.6694 10.292 31.6694 7.628C31.6694 5.648 32.0954 4.07 32.9474 2.894C33.7994 1.706 35.0834 1.112 36.7994 1.112C38.5154 1.112 39.7994 1.706 40.6514 2.894C41.5034 4.07 41.9294 5.648 41.9294 7.628C41.9294 10.28 41.2154 12.146 39.7874 13.226H42.9914ZM34.4594 4.226C33.9674 5.09 33.7214 6.224 33.7214 7.628C33.7214 9.032 33.9674 10.166 34.4594 11.03C34.9634 11.894 35.7434 12.326 36.7994 12.326C37.8554 12.326 38.6234 11.9 39.1034 11.048C39.5954 10.184 39.8414 9.044 39.8414 7.628C39.8414 6.212 39.5954 5.078 39.1034 4.226C38.6234 3.362 37.8554 2.93 36.7994 2.93C35.7434 2.93 34.9634 3.362 34.4594 4.226ZM49.858 13.226V14H43V13.226H46.078V3.308H43.522V1.418H48.094V13.226H49.858ZM56.7135 13.226V14H49.8555V13.226H52.9335V3.308H50.3775V1.418H54.9495V13.226H56.7135ZM61.6429 13.226V14H56.7109V13.226H61.6429ZM62.9464 9.572V7.682H68.9224V9.572H66.3484V13.226H70.2184V14H61.6504V13.226H65.5024V9.572H62.9464ZM75.1429 13.226V14H70.2109V13.226H75.1429ZM76.1944 13.226V12.2L80.0104 8.366C80.8624 7.502 81.4684 6.824 81.8284 6.332C82.1884 5.84 82.3684 5.342 82.3684 4.838C82.3684 4.334 82.1764 3.908 81.7924 3.56C81.4084 3.2 80.9224 3.02 80.3344 3.02C79.3024 3.02 78.4444 3.548 77.7604 4.604L76.0504 3.614C76.6024 2.786 77.2084 2.162 77.8684 1.742C78.5404 1.322 79.3984 1.112 80.4424 1.112C81.4984 1.112 82.4224 1.448 83.2144 2.12C84.0064 2.78 84.4024 3.686 84.4024 4.838C84.4024 5.486 84.2344 6.104 83.8984 6.692C83.5624 7.28 82.9444 8.036 82.0444 8.96L79.0924 11.966H84.7984V13.226H86.5444V14H74.4484V13.226H76.1944ZM98.134 13.226V14H85.75V13.226H88.936C87.52 12.158 86.812 10.292 86.812 7.628C86.812 5.648 87.238 4.07 88.09 2.894C88.942 1.706 90.226 1.112 91.942 1.112C93.658 1.112 94.942 1.706 95.794 2.894C96.646 4.07 97.072 5.648 97.072 7.628C97.072 10.28 96.358 12.146 94.93 13.226H98.134ZM89.602 4.226C89.11 5.09 88.864 6.224 88.864 7.628C88.864 9.032 89.11 10.166 89.602 11.03C90.106 11.894 90.886 12.326 91.942 12.326C92.998 12.326 93.766 11.9 94.246 11.048C94.738 10.184 94.984 9.044 94.984 7.628C94.984 6.212 94.738 5.078 94.246 4.226C93.766 3.362 92.998 2.93 91.942 2.93C90.886 2.93 90.106 3.362 89.602 4.226ZM99.1866 13.226V12.2L103.003 8.366C103.855 7.502 104.461 6.824 104.821 6.332C105.181 5.84 105.361 5.342 105.361 4.838C105.361 4.334 105.169 3.908 104.785 3.56C104.401 3.2 103.915 3.02 103.327 3.02C102.295 3.02 101.437 3.548 100.753 4.604L99.0426 3.614C99.5946 2.786 100.201 2.162 100.861 1.742C101.533 1.322 102.391 1.112 103.435 1.112C104.491 1.112 105.415 1.448 106.207 2.12C106.999 2.78 107.395 3.686 107.395 4.838C107.395 5.486 107.227 6.104 106.891 6.692C106.555 7.28 105.937 8.036 105.037 8.96L102.085 11.966H107.791V13.226H109.537V14H97.4406V13.226H99.1866ZM121.126 13.226V14H108.742V13.226H111.928C110.512 12.158 109.804 10.292 109.804 7.628C109.804 5.648 110.23 4.07 111.082 2.894C111.934 1.706 113.218 1.112 114.934 1.112C116.65 1.112 117.934 1.706 118.786 2.894C119.638 4.07 120.064 5.648 120.064 7.628C120.064 10.28 119.35 12.146 117.922 13.226H121.126ZM112.594 4.226C112.102 5.09 111.856 6.224 111.856 7.628C111.856 9.032 112.102 10.166 112.594 11.03C113.098 11.894 113.878 12.326 114.934 12.326C115.99 12.326 116.758 11.9 117.238 11.048C117.73 10.184 117.976 9.044 117.976 7.628C117.976 6.212 117.73 5.078 117.238 4.226C116.758 3.362 115.99 2.93 114.934 2.93C113.878 2.93 113.098 3.362 112.594 4.226ZM126.067 13.226V14H121.135V13.226H126.067ZM139.034 7.556C139.034 8.888 138.806 10.052 138.35 11.048C137.906 12.032 137.246 12.8 136.37 13.352C135.494 13.904 134.408 14.18 133.112 14.18C131.78 14.18 130.67 13.904 129.782 13.352C128.906 12.8 128.252 12.026 127.82 11.03C127.388 10.034 127.172 8.87 127.172 7.538C127.172 6.218 127.388 5.066 127.82 4.082C128.252 3.098 128.906 2.33 129.782 1.778C130.67 1.226 131.786 0.95 133.13 0.95C134.414 0.95 135.494 1.226 136.37 1.778C137.246 2.318 137.906 3.086 138.35 4.082C138.806 5.066 139.034 6.224 139.034 7.556ZM128.882 7.556C128.882 9.176 129.224 10.454 129.908 11.39C130.592 12.314 131.66 12.776 133.112 12.776C134.576 12.776 135.644 12.314 136.316 11.39C136.988 10.454 137.324 9.176 137.324 7.556C137.324 5.936 136.988 4.67 136.316 3.758C135.644 2.834 134.582 2.372 133.13 2.372C131.678 2.372 130.604 2.834 129.908 3.758C129.224 4.67 128.882 5.936 128.882 7.556ZM153.097 7.556C153.097 8.888 152.869 10.052 152.413 11.048C151.969 12.032 151.309 12.8 150.433 13.352C149.557 13.904 148.471 14.18 147.175 14.18C145.843 14.18 144.733 13.904 143.845 13.352C142.969 12.8 142.315 12.026 141.883 11.03C141.451 10.034 141.235 8.87 141.235 7.538C141.235 6.218 141.451 5.066 141.883 4.082C142.315 3.098 142.969 2.33 143.845 1.778C144.733 1.226 145.849 0.95 147.193 0.95C148.477 0.95 149.557 1.226 150.433 1.778C151.309 2.318 151.969 3.086 152.413 4.082C152.869 5.066 153.097 6.224 153.097 7.556ZM142.945 7.556C142.945 9.176 143.287 10.454 143.971 11.39C144.655 12.314 145.723 12.776 147.175 12.776C148.639 12.776 149.707 12.314 150.379 11.39C151.051 10.454 151.387 9.176 151.387 7.556C151.387 5.936 151.051 4.67 150.379 3.758C149.707 2.834 148.645 2.372 147.193 2.372C145.741 2.372 144.667 2.834 143.971 3.758C143.287 4.67 142.945 5.936 142.945 7.556ZM167.159 7.556C167.159 8.888 166.931 10.052 166.475 11.048C166.031 12.032 165.371 12.8 164.495 13.352C163.619 13.904 162.533 14.18 161.237 14.18C159.905 14.18 158.795 13.904 157.907 13.352C157.031 12.8 156.377 12.026 155.945 11.03C155.513 10.034 155.297 8.87 155.297 7.538C155.297 6.218 155.513 5.066 155.945 4.082C156.377 3.098 157.031 2.33 157.907 1.778C158.795 1.226 159.911 0.95 161.255 0.95C162.539 0.95 163.619 1.226 164.495 1.778C165.371 2.318 166.031 3.086 166.475 4.082C166.931 5.066 167.159 6.224 167.159 7.556ZM157.007 7.556C157.007 9.176 157.349 10.454 158.033 11.39C158.717 12.314 159.785 12.776 161.237 12.776C162.701 12.776 163.769 12.314 164.441 11.39C165.113 10.454 165.449 9.176 165.449 7.556C165.449 5.936 165.113 4.67 164.441 3.758C163.769 2.834 162.707 2.372 161.255 2.372C159.803 2.372 158.729 2.834 158.033 3.758C157.349 4.67 157.007 5.936 157.007 7.556ZM173.194 13.226V14H168.262V13.226H173.194ZM179.933 13.226V14H173.201V13.226H175.991V5.846H174.587V1.418H175.991V5.342H177.143V1.418H178.547V5.846H177.143V13.226H179.933ZM192.894 7.556C192.894 8.888 192.666 10.052 192.21 11.048C191.766 12.032 191.106 12.8 190.23 13.352C189.354 13.904 188.268 14.18 186.972 14.18C185.64 14.18 184.53 13.904 183.642 13.352C182.766 12.8 182.112 12.026 181.68 11.03C181.248 10.034 181.032 8.87 181.032 7.538C181.032 6.218 181.248 5.066 181.68 4.082C182.112 3.098 182.766 2.33 183.642 1.778C184.53 1.226 185.646 0.95 186.99 0.95C188.274 0.95 189.354 1.226 190.23 1.778C191.106 2.318 191.766 3.086 192.21 4.082C192.666 5.066 192.894 6.224 192.894 7.556ZM182.742 7.556C182.742 9.176 183.084 10.454 183.768 11.39C184.452 12.314 185.52 12.776 186.972 12.776C188.436 12.776 189.504 12.314 190.176 11.39C190.848 10.454 191.184 9.176 191.184 7.556C191.184 5.936 190.848 4.67 190.176 3.758C189.504 2.834 188.442 2.372 186.99 2.372C185.538 2.372 184.464 2.834 183.768 3.758C183.084 4.67 182.742 5.936 182.742 7.556ZM195.022 8.204C195.022 6.092 195.34 4.448 195.976 3.272C196.612 2.084 197.638 1.34 199.054 1.04C199.834 0.872 200.596 0.721999 201.34 0.589999C202.084 0.457999 202.78 0.337999 203.428 0.229999L203.698 1.616C203.278 1.676 202.804 1.754 202.276 1.85C201.748 1.934 201.226 2.024 200.71 2.12C200.194 2.204 199.75 2.288 199.378 2.372C198.598 2.54 197.98 2.948 197.524 3.596C197.068 4.232 196.81 5.228 196.75 6.584H196.858C197.026 6.356 197.254 6.122 197.542 5.882C197.842 5.642 198.196 5.438 198.604 5.27C199.024 5.102 199.498 5.018 200.026 5.018C201.274 5.018 202.216 5.42 202.852 6.224C203.488 7.028 203.806 8.072 203.806 9.356C203.806 10.424 203.62 11.318 203.248 12.038C202.876 12.758 202.36 13.298 201.7 13.658C201.04 14.006 200.272 14.18 199.396 14.18C198.064 14.18 197.002 13.67 196.21 12.65C195.418 11.63 195.022 10.148 195.022 8.204ZM199.522 12.866C200.302 12.866 200.932 12.614 201.412 12.11C201.892 11.606 202.132 10.742 202.132 9.518C202.132 8.534 201.946 7.76 201.574 7.196C201.214 6.62 200.614 6.332 199.774 6.332C199.246 6.332 198.766 6.452 198.334 6.692C197.902 6.92 197.542 7.184 197.254 7.484C196.966 7.784 196.762 8.036 196.642 8.24C196.642 8.828 196.684 9.398 196.768 9.95C196.852 10.502 196.996 11 197.2 11.444C197.416 11.876 197.71 12.224 198.082 12.488C198.466 12.74 198.946 12.866 199.522 12.866ZM210.891 4.172C212.079 4.172 213.033 4.586 213.753 5.414C214.485 6.242 214.851 7.49 214.851 9.158C214.851 10.802 214.485 12.05 213.753 12.902C213.033 13.754 212.073 14.18 210.873 14.18C210.129 14.18 209.511 14.042 209.019 13.766C208.539 13.478 208.161 13.148 207.885 12.776H207.777C207.801 12.98 207.825 13.238 207.849 13.55C207.873 13.862 207.885 14.132 207.885 14.36V18.32H206.301V4.352H207.597L207.813 5.666H207.885C208.173 5.246 208.551 4.892 209.019 4.604C209.487 4.316 210.111 4.172 210.891 4.172ZM210.603 5.504C209.619 5.504 208.923 5.78 208.515 6.332C208.119 6.884 207.909 7.724 207.885 8.852V9.158C207.885 10.346 208.077 11.264 208.461 11.912C208.857 12.548 209.583 12.866 210.639 12.866C211.227 12.866 211.707 12.704 212.079 12.38C212.463 12.056 212.745 11.618 212.925 11.066C213.117 10.502 213.213 9.86 213.213 9.14C213.213 8.036 212.997 7.154 212.565 6.494C212.145 5.834 211.491 5.504 210.603 5.504ZM221.03 4.19C222.206 4.19 223.076 4.448 223.64 4.964C224.204 5.48 224.486 6.302 224.486 7.43V14H223.334L223.028 12.632H222.956C222.536 13.16 222.092 13.55 221.624 13.802C221.168 14.054 220.532 14.18 219.716 14.18C218.84 14.18 218.114 13.952 217.538 13.496C216.962 13.028 216.674 12.302 216.674 11.318C216.674 10.358 217.052 9.62 217.808 9.104C218.564 8.576 219.728 8.288 221.3 8.24L222.938 8.186V7.61C222.938 6.806 222.764 6.248 222.416 5.936C222.068 5.624 221.576 5.468 220.94 5.468C220.436 5.468 219.956 5.546 219.5 5.702C219.044 5.846 218.618 6.014 218.222 6.206L217.736 5.018C218.156 4.79 218.654 4.598 219.23 4.442C219.806 4.274 220.406 4.19 221.03 4.19ZM222.92 9.284L221.498 9.338C220.298 9.386 219.464 9.578 218.996 9.914C218.54 10.25 218.312 10.724 218.312 11.336C218.312 11.876 218.474 12.272 218.798 12.524C219.134 12.776 219.56 12.902 220.076 12.902C220.892 12.902 221.57 12.68 222.11 12.236C222.65 11.78 222.92 11.084 222.92 10.148V9.284ZM230.004 4.172C231.108 4.172 231.984 4.394 232.632 4.838C233.292 5.27 233.622 5.894 233.622 6.71C233.622 7.298 233.46 7.766 233.136 8.114C232.812 8.45 232.368 8.696 231.804 8.852V8.924C232.188 9.032 232.542 9.182 232.866 9.374C233.19 9.566 233.448 9.818 233.64 10.13C233.844 10.442 233.946 10.844 233.946 11.336C233.946 12.14 233.61 12.818 232.938 13.37C232.278 13.91 231.24 14.18 229.824 14.18C229.128 14.18 228.498 14.12 227.934 14C227.37 13.892 226.902 13.742 226.53 13.55V12.128C226.938 12.32 227.418 12.494 227.97 12.65C228.534 12.806 229.146 12.884 229.806 12.884C230.526 12.884 231.132 12.764 231.624 12.524C232.128 12.272 232.38 11.846 232.38 11.246C232.38 10.166 231.462 9.626 229.626 9.626H228.33V8.33H229.374C230.202 8.33 230.862 8.222 231.354 8.006C231.858 7.778 232.11 7.394 232.11 6.854C232.11 6.398 231.918 6.056 231.534 5.828C231.162 5.6 230.622 5.486 229.914 5.486C229.386 5.486 228.918 5.54 228.51 5.648C228.114 5.744 227.676 5.894 227.196 6.098L226.638 4.838C227.646 4.394 228.768 4.172 230.004 4.172ZM244.678 9.158C244.678 10.754 244.27 11.99 243.454 12.866C242.65 13.742 241.558 14.18 240.178 14.18C239.326 14.18 238.564 13.988 237.892 13.604C237.232 13.208 236.71 12.638 236.326 11.894C235.942 11.138 235.75 10.226 235.75 9.158C235.75 7.562 236.152 6.332 236.956 5.468C237.76 4.604 238.852 4.172 240.232 4.172C241.108 4.172 241.876 4.37 242.536 4.766C243.208 5.15 243.73 5.714 244.102 6.458C244.486 7.19 244.678 8.09 244.678 9.158ZM237.388 9.158C237.388 10.298 237.61 11.204 238.054 11.876C238.51 12.536 239.23 12.866 240.214 12.866C241.186 12.866 241.9 12.536 242.356 11.876C242.812 11.204 243.04 10.298 243.04 9.158C243.04 8.018 242.812 7.124 242.356 6.476C241.9 5.828 241.18 5.504 240.196 5.504C239.212 5.504 238.498 5.828 238.054 6.476C237.61 7.124 237.388 8.018 237.388 9.158ZM254.946 6.782C254.946 7.382 254.766 7.85 254.406 8.186C254.046 8.522 253.584 8.75 253.02 8.87V8.942C253.62 9.026 254.142 9.242 254.586 9.59C255.03 9.926 255.252 10.454 255.252 11.174C255.252 11.99 254.946 12.668 254.334 13.208C253.734 13.736 252.738 14 251.346 14H247.188V4.352H251.328C252.012 4.352 252.624 4.43 253.164 4.586C253.716 4.73 254.148 4.982 254.46 5.342C254.784 5.69 254.946 6.17 254.946 6.782ZM253.344 6.98C253.344 6.524 253.176 6.194 252.84 5.99C252.516 5.774 251.982 5.666 251.238 5.666H248.772V8.312H250.95C252.546 8.312 253.344 7.868 253.344 6.98ZM253.614 11.174C253.614 10.622 253.404 10.226 252.984 9.986C252.564 9.746 251.946 9.626 251.13 9.626H248.772V12.722H251.166C251.958 12.722 252.564 12.608 252.984 12.38C253.404 12.14 253.614 11.738 253.614 11.174ZM261.213 4.19C262.389 4.19 263.259 4.448 263.823 4.964C264.387 5.48 264.669 6.302 264.669 7.43V14H263.517L263.211 12.632H263.139C262.719 13.16 262.275 13.55 261.807 13.802C261.351 14.054 260.715 14.18 259.899 14.18C259.023 14.18 258.297 13.952 257.721 13.496C257.145 13.028 256.857 12.302 256.857 11.318C256.857 10.358 257.235 9.62 257.991 9.104C258.747 8.576 259.911 8.288 261.483 8.24L263.121 8.186V7.61C263.121 6.806 262.947 6.248 262.599 5.936C262.251 5.624 261.759 5.468 261.123 5.468C260.619 5.468 260.139 5.546 259.683 5.702C259.227 5.846 258.801 6.014 258.405 6.206L257.919 5.018C258.339 4.79 258.837 4.598 259.413 4.442C259.989 4.274 260.589 4.19 261.213 4.19ZM263.103 9.284L261.681 9.338C260.481 9.386 259.647 9.578 259.179 9.914C258.723 10.25 258.495 10.724 258.495 11.336C258.495 11.876 258.657 12.272 258.981 12.524C259.317 12.776 259.743 12.902 260.259 12.902C261.075 12.902 261.753 12.68 262.293 12.236C262.833 11.78 263.103 11.084 263.103 10.148V9.284ZM274.309 5.684H271.159V14H269.593V5.684H266.479V4.352H274.309V5.684ZM279.76 4.172C280.588 4.172 281.296 4.352 281.884 4.712C282.484 5.072 282.94 5.582 283.252 6.242C283.576 6.89 283.738 7.652 283.738 8.528V9.482H277.132C277.156 10.574 277.432 11.408 277.96 11.984C278.5 12.548 279.25 12.83 280.21 12.83C280.822 12.83 281.362 12.776 281.83 12.668C282.31 12.548 282.802 12.38 283.306 12.164V13.55C282.814 13.766 282.328 13.922 281.848 14.018C281.368 14.126 280.798 14.18 280.138 14.18C279.226 14.18 278.416 13.994 277.708 13.622C277.012 13.25 276.466 12.698 276.07 11.966C275.686 11.222 275.494 10.316 275.494 9.248C275.494 8.192 275.668 7.286 276.016 6.53C276.376 5.774 276.874 5.192 277.51 4.784C278.158 4.376 278.908 4.172 279.76 4.172ZM279.742 5.468C278.986 5.468 278.386 5.714 277.942 6.206C277.51 6.686 277.252 7.358 277.168 8.222H282.082C282.07 7.406 281.878 6.746 281.506 6.242C281.134 5.726 280.546 5.468 279.742 5.468ZM293.538 14H291.936V5.666H289.092C288.936 7.694 288.72 9.332 288.444 10.58C288.168 11.816 287.802 12.716 287.346 13.28C286.89 13.844 286.314 14.126 285.618 14.126C285.462 14.126 285.306 14.114 285.15 14.09C285.006 14.078 284.886 14.048 284.79 14V12.812C284.862 12.836 284.94 12.854 285.024 12.866C285.108 12.878 285.192 12.884 285.276 12.884C285.924 12.884 286.44 12.194 286.824 10.814C287.22 9.434 287.52 7.28 287.724 4.352H293.538V14ZM298.184 8.312H301.046C303.554 8.312 304.808 9.224 304.808 11.048C304.808 11.948 304.502 12.668 303.89 13.208C303.278 13.736 302.306 14 300.974 14H296.6V4.352H298.184V8.312ZM303.224 11.138C303.224 10.55 303.014 10.154 302.594 9.95C302.186 9.734 301.61 9.626 300.866 9.626H298.184V12.722H300.902C301.574 12.722 302.126 12.602 302.558 12.362C303.002 12.122 303.224 11.714 303.224 11.138ZM308.872 4.352V8.366H314.11V4.352H315.694V14H314.11V9.698H308.872V14H307.288V4.352H308.872ZM318.749 14V4.352H320.333V8.312H322.835C324.083 8.312 325.007 8.54 325.607 8.996C326.207 9.452 326.507 10.136 326.507 11.048C326.507 11.948 326.213 12.668 325.625 13.208C325.037 13.736 324.083 14 322.763 14H318.749ZM328.109 14V4.352H329.693V14H328.109ZM320.333 12.722H322.619C323.303 12.722 323.861 12.608 324.293 12.38C324.725 12.14 324.941 11.726 324.941 11.138C324.941 10.55 324.743 10.154 324.347 9.95C323.951 9.734 323.381 9.626 322.637 9.626H320.333V12.722ZM336.485 4.172C337.313 4.172 338.021 4.352 338.609 4.712C339.209 5.072 339.665 5.582 339.977 6.242C340.301 6.89 340.463 7.652 340.463 8.528V9.482H333.857C333.881 10.574 334.157 11.408 334.685 11.984C335.225 12.548 335.975 12.83 336.935 12.83C337.547 12.83 338.087 12.776 338.555 12.668C339.035 12.548 339.527 12.38 340.031 12.164V13.55C339.539 13.766 339.053 13.922 338.573 14.018C338.093 14.126 337.523 14.18 336.863 14.18C335.951 14.18 335.141 13.994 334.433 13.622C333.737 13.25 333.191 12.698 332.795 11.966C332.411 11.222 332.219 10.316 332.219 9.248C332.219 8.192 332.393 7.286 332.741 6.53C333.101 5.774 333.599 5.192 334.235 4.784C334.883 4.376 335.633 4.172 336.485 4.172ZM336.467 5.468C335.711 5.468 335.111 5.714 334.667 6.206C334.235 6.686 333.977 7.358 333.893 8.222H338.807C338.795 7.406 338.603 6.746 338.231 6.242C337.859 5.726 337.271 5.468 336.467 5.468ZM346.321 13.226V14H341.389V13.226H346.321ZM351.728 14.18C350.876 14.18 350.114 14.006 349.442 13.658C348.782 13.31 348.26 12.77 347.876 12.038C347.504 11.306 347.318 10.37 347.318 9.23C347.318 8.042 347.516 7.076 347.912 6.332C348.308 5.588 348.842 5.042 349.514 4.694C350.198 4.346 350.972 4.172 351.836 4.172C352.328 4.172 352.802 4.226 353.258 4.334C353.714 4.43 354.086 4.55 354.374 4.694L353.888 6.008C353.6 5.9 353.264 5.798 352.88 5.702C352.496 5.606 352.136 5.558 351.8 5.558C349.904 5.558 348.956 6.776 348.956 9.212C348.956 10.376 349.184 11.27 349.64 11.894C350.108 12.506 350.798 12.812 351.71 12.812C352.238 12.812 352.7 12.758 353.096 12.65C353.504 12.542 353.876 12.41 354.212 12.254V13.658C353.888 13.826 353.528 13.952 353.132 14.036C352.748 14.132 352.28 14.18 351.728 14.18ZM358.001 4.352V10.238C358.001 10.382 357.995 10.598 357.983 10.886C357.971 11.174 357.953 11.462 357.929 11.75C357.917 12.038 357.905 12.266 357.893 12.434L363.059 4.352H365.003V14H363.527V8.312C363.527 8.12 363.527 7.868 363.527 7.556C363.539 7.244 363.551 6.938 363.563 6.638C363.575 6.326 363.587 6.092 363.599 5.936L358.469 14H356.507V4.352H358.001ZM371.943 14.18C371.091 14.18 370.329 14.006 369.657 13.658C368.997 13.31 368.475 12.77 368.091 12.038C367.719 11.306 367.533 10.37 367.533 9.23C367.533 8.042 367.731 7.076 368.127 6.332C368.523 5.588 369.057 5.042 369.729 4.694C370.413 4.346 371.187 4.172 372.051 4.172C372.543 4.172 373.017 4.226 373.473 4.334C373.929 4.43 374.301 4.55 374.589 4.694L374.103 6.008C373.815 5.9 373.479 5.798 373.095 5.702C372.711 5.606 372.351 5.558 372.015 5.558C370.119 5.558 369.171 6.776 369.171 9.212C369.171 10.376 369.399 11.27 369.855 11.894C370.323 12.506 371.013 12.812 371.925 12.812C372.453 12.812 372.915 12.758 373.311 12.65C373.719 12.542 374.091 12.41 374.427 12.254V13.658C374.103 13.826 373.743 13.952 373.347 14.036C372.963 14.132 372.495 14.18 371.943 14.18ZM383.381 5.684H380.231V14H378.665V5.684H375.551V4.352H383.381V5.684ZM388.832 4.172C389.66 4.172 390.368 4.352 390.956 4.712C391.556 5.072 392.012 5.582 392.324 6.242C392.648 6.89 392.81 7.652 392.81 8.528V9.482H386.204C386.228 10.574 386.504 11.408 387.032 11.984C387.572 12.548 388.322 12.83 389.282 12.83C389.894 12.83 390.434 12.776 390.902 12.668C391.382 12.548 391.874 12.38 392.378 12.164V13.55C391.886 13.766 391.4 13.922 390.92 14.018C390.44 14.126 389.87 14.18 389.21 14.18C388.298 14.18 387.488 13.994 386.78 13.622C386.084 13.25 385.538 12.698 385.142 11.966C384.758 11.222 384.566 10.316 384.566 9.248C384.566 8.192 384.74 7.286 385.088 6.53C385.448 5.774 385.946 5.192 386.582 4.784C387.23 4.376 387.98 4.172 388.832 4.172ZM388.814 5.468C388.058 5.468 387.458 5.714 387.014 6.206C386.582 6.686 386.324 7.358 386.24 8.222H391.154C391.142 7.406 390.95 6.746 390.578 6.242C390.206 5.726 389.618 5.468 388.814 5.468ZM405.616 4.352V14H404.194V7.844C404.194 7.592 404.2 7.328 404.212 7.052C404.236 6.776 404.26 6.506 404.284 6.242H404.23L401.08 14H399.748L396.688 6.242H396.634C396.67 6.782 396.688 7.334 396.688 7.898V14H395.266V4.352H397.372L400.414 12.11L403.51 4.352H405.616ZM408.696 14V4.352H410.28V8.312H412.782C414.03 8.312 414.954 8.54 415.554 8.996C416.154 9.452 416.454 10.136 416.454 11.048C416.454 11.948 416.16 12.668 415.572 13.208C414.984 13.736 414.03 14 412.71 14H408.696ZM418.056 14V4.352H419.64V14H418.056ZM410.28 12.722H412.566C413.25 12.722 413.808 12.608 414.24 12.38C414.672 12.14 414.888 11.726 414.888 11.138C414.888 10.55 414.69 10.154 414.294 9.95C413.898 9.734 413.328 9.626 412.584 9.626H410.28V12.722ZM427.908 13.226V14H421.176V13.226H423.966V5.846H422.562V1.418H423.966V5.342H425.118V1.418H426.522V5.846H425.118V13.226H427.908Z" fill="#655E5E"/>
</svg>
